<?xml version="1.0" standalone="no"?>
<!DOCTYPE svg PUBLIC "-//W3C//DTD SVG 20010904//EN"
 "http://www.w3.org/TR/2001/REC-SVG-20010904/DTD/svg10.dtd">
<svg version="1.0" xmlns="http://www.w3.org/2000/svg"
 width="213.000000pt" height="228.000000pt" viewBox="0 0 213.000000 228.000000"
 preserveAspectRatio="xMidYMid meet">

<g transform="translate(0.000000,228.000000) scale(0.100000,-0.100000)"
fill="#000000" stroke="none">
<path d="M750 2048 c-30 -5 -81 -10 -112 -10 -42 0 -58 -4 -63 -15 -5 -14 -8
-13 -26 3 -19 17 -21 17 -30 2 -5 -10 -9 -21 -9 -24 1 -4 -3 -10 -10 -14 -15
-10 -17 -603 -2 -865 6 -113 8 -218 3 -242 -10 -54 4 -85 44 -93 17 -4 40 -12
52 -18 25 -14 93 -16 93 -3 0 20 34 20 65 1 37 -23 68 -26 83 -7 7 8 9 58 6
142 -9 225 -8 259 5 251 14 -9 103 -382 107 -446 2 -30 10 -73 18 -95 8 -22
15 -49 16 -60 0 -28 19 -45 47 -45 35 0 57 61 86 236 24 141 88 352 131 431
l15 28 1 -37 c0 -54 8 -66 54 -87 36 -15 52 -17 107 -9 35 5 89 7 120 3 71 -7
85 6 73 68 -11 56 -11 589 0 749 l9 128 -35 14 c-24 10 -85 16 -209 18 l-174
3 -3 -25 c-2 -14 -14 -59 -27 -100 -14 -41 -29 -106 -35 -144 -11 -68 -45
-184 -58 -198 -18 -18 -60 7 -93 54 -67 98 -89 147 -120 269 -27 108 -48 152
-68 148 -3 -1 -31 -6 -61 -11z"/>
<path d="M1345 1012 c-57 -5 -72 -35 -35 -71 16 -17 33 -20 102 -20 46 0 91
-3 101 -6 23 -9 117 23 124 43 12 30 -34 47 -126 48 -47 0 -95 3 -106 5 -11 3
-38 4 -60 1z"/>
<path d="M1371 829 c-25 -5 -52 -16 -60 -24 -15 -15 -13 -19 13 -41 23 -20 34
-24 55 -18 14 5 67 8 118 9 103 0 127 11 97 43 -35 36 -130 49 -223 31z"/>
<path d="M581 730 c-57 -12 -71 -25 -45 -45 10 -8 26 -15 34 -16 166 -12 253
-10 270 7 13 13 12 17 -9 33 -15 11 -41 19 -65 18 -23 0 -63 3 -91 6 -27 3
-70 2 -94 -3z"/>
<path d="M1396 689 c-54 -13 -68 -26 -55 -50 5 -10 20 -26 33 -34 20 -13 27
-13 55 -2 24 10 45 11 81 4 27 -5 56 -7 65 -4 24 10 19 63 -7 81 -25 18 -108
20 -172 5z"/>
<path d="M610 614 c-36 -7 -68 -12 -72 -13 -5 -1 -8 -7 -8 -15 0 -25 87 -42
215 -42 102 1 126 4 150 20 l29 19 -27 21 c-22 16 -43 20 -124 21 -54 0 -127
-5 -163 -11z"/>
<path d="M1358 530 c-23 -14 -22 -29 1 -57 16 -20 29 -22 130 -25 89 -2 114 1
126 13 19 19 12 40 -18 58 -28 18 -215 26 -239 11z"/>
<path d="M552 451 c-3 -8 5 -22 17 -32 18 -15 37 -17 109 -14 48 2 110 4 138
4 54 1 76 20 54 47 -17 19 -310 15 -318 -5z"/>
<path d="M1490 398 c-91 -11 -122 -29 -118 -65 5 -41 29 -50 85 -30 26 9 69
17 94 17 45 0 79 20 79 47 0 15 -34 43 -51 42 -8 -1 -48 -6 -89 -11z"/>
<path d="M688 370 c-100 -13 -146 -44 -100 -69 9 -5 81 -8 160 -6 117 2 146 5
160 18 22 23 8 34 -59 52 -58 16 -73 16 -161 5z"/>
</g>
</svg>
